<svg width="465" height="178" viewBox="0 0 465 178" fill="none" xmlns="http://www.w3.org/2000/svg">
<path d="M60.1229 14.2107H51.1589C37.6043 14.2107 24.4856 23.1747 24.4856 49.1907C24.4856 74.3333 36.5109 82.4227 51.1589 82.4227H60.1229V14.2107ZM46.1309 96.416L19.4576 156.318H0L29.2963 92.26C15.5229 85.264 6.34027 72.584 6.34027 49.1907C6.34027 16.3973 27.1096 7.2828e-06 51.8149 7.2828e-06H76.9563V156.318H60.1229V96.416H46.1309Z" fill="#EE252C"/>
<path d="M404.024 101.225C404.024 66.6813 417.362 44.6 443.16 44.6C452.998 44.6 458.682 47.224 463.492 50.284L461.087 66.4627C456.496 62.5267 449.938 58.8107 442.942 58.8107C430.698 58.8107 421.954 72.584 421.954 100.351C421.954 127.897 428.511 143.639 442.286 143.639C450.592 143.639 456.934 140.36 460.868 136.861L464.803 149.541C458.9 154.571 451.904 157.849 441.847 157.849C418.235 157.849 404.024 138.829 404.024 101.225V101.225ZM354.178 101.444V156.318H337.124V46.1293H354.178V97.0707L380.631 46.1293H397.904L370.575 97.9453L401.839 156.318H383.255L354.178 101.444ZM273.942 91.168H302.144C302.144 72.3653 299.083 58.592 289.246 58.592C278.751 58.592 275.035 71.4907 273.942 91.168ZM292.743 157.849C270.007 157.849 256.014 139.704 256.014 105.816C256.014 70.3987 265.852 44.6 289.246 44.6C307.611 44.6 319.635 58.3733 319.635 95.76V105.16H273.723C273.723 130.084 280.719 143.203 294.274 143.203C303.894 143.203 311.546 138.829 315.918 135.768L319.854 148.885C312.858 154.352 303.675 157.849 292.743 157.849V157.849ZM220.159 59.904H201.138V61.8707C201.138 85.0453 200.044 118.933 190.863 142.327H220.159V59.904ZM245.738 177.964H230.434V156.318H183.21V177.964H167.906V142.327H174.684C184.74 118.933 185.834 84.8267 185.834 55.5307V46.1293H236.994V142.327H245.738V177.964ZM158.068 46.1293V156.318H141.234V106.909H115.872V156.318H98.8203V46.1293H115.872V92.916H141.234V46.1293H158.068Z" fill="#040606"/>
</svg>
