<svg width="903" height="286" viewBox="0 0 903 286" fill="none" xmlns="http://www.w3.org/2000/svg">
<path d="M99.5 208.5L136.5 165.5L191 176L210 228.5L174.5 271.5L119.5 261L99.5 208.5Z" fill="#C5241C"/>
<path d="M146.5 134.5L0 39.5V233.5L60.5 270.5L146.5 134.5Z" fill="#F1CF30"/>
<rect x="210" y="133" width="139" height="153" fill="black"/>
<path d="M259.5 132L262 13.5L364.5 74.5L259.5 132Z" fill="#C5241C"/>
<circle cx="484.5" cy="135.5" r="135.5" fill="#F1CF30"/>
<path d="M605 198L650 101L755.5 113L777 218.5L683 271L605 198Z" fill="#C5241C"/>
<path d="M773.5 197L808 143L902.5 204V281L773.5 197Z" fill="#F1CF30"/>
</svg>
